{
	"asset":{
		"generator":"Khronos glTF Blender I/O v4.0.44",
		"version":"2.0"
	},
	"extensionsUsed":[
		"KHR_materials_specular",
		"KHR_materials_sheen",
		"KHR_materials_ior",
		"KHR_texture_transform"
	],
	"extensionsRequired":[
		"KHR_texture_transform"
	],
	"scene":0,
	"scenes":[
		{
			"name":"Scene",
			"nodes":[
				4
			]
		}
	],
	"nodes":[
		{
			"name":"Empty",
			"rotation":[
				0,
				-0.19080901145935059,
				0,
				0.9816272854804993
			]
		},
		{
			"mesh":0,
			"name":"feather"
		},
		{
			"mesh":1,
			"name":"glue"
		},
		{
			"mesh":2,
			"name":"skeleton",
			"translation":[
				0,
				1.1696064472198486,
				0
			]
		},
		{
			"children":[
				0,
				1,
				2,
				3
			],
			"mesh":3,
			"name":"cork",
			"rotation":[
				0,
				0,
				-0.4050951898097992,
				0.9142745137214661
			],
			"scale":[
				0.016917267814278603,
				0.016917267814278603,
				0.016917267814278603
			],
			"translation":[
				-0.030714260414242744,
				-0.0255429707467556,
				0
			]
		}
	],
	"materials":[
		{
			"doubleSided":true,
			"name":"white material",
			"pbrMetallicRoughness":{
				"baseColorFactor":[
					0.8000000715255737,
					0.7628591060638428,
					0.7167964577674866,
					1
				],
				"metallicFactor":0,
				"roughnessFactor":0.5
			}
		},
		{
			"doubleSided":true,
			"extensions":{
				"KHR_materials_specular":{
					"specularFactor":0.800000011920929
				},
				"KHR_materials_sheen":{
					"sheenColorFactor":[
						1.0,
						1.0,
						1.0
					],
					"sheenRoughnessFactor":0.5
				},
				"KHR_materials_ior":{
					"ior":1.4500000476837158
				}
			},
			"name":"feather",
			"normalTexture":{
				"index":0
			},
			"pbrMetallicRoughness":{
				"baseColorFactor":[
					0.800000011920929,
					0.800000011920929,
					0.800000011920929,
					1
				],
				"baseColorTexture":{
					"index":1
				},
				"metallicFactor":0,
				"roughnessFactor":0.4000000059604645
			}
		},
		{
			"doubleSided":true,
			"extensions":{
				"KHR_materials_specular":{
					"specularFactor":0.4000000059604645
				},
				"KHR_materials_ior":{
					"ior":1.4500000476837158
				}
			},
			"name":"black material",
			"pbrMetallicRoughness":{
				"baseColorFactor":[
					0,
					0,
					0,
					1
				],
				"metallicFactor":0,
				"roughnessFactor":0.30000001192092896
			}
		},
		{
			"doubleSided":true,
			"name":"Fabric material",
			"normalTexture":{
				"extensions":{
					"KHR_texture_transform":{
						"offset":[
							0,
							-2
						],
						"scale":[
							3,
							3
						]
					}
				},
				"index":2
			},
			"pbrMetallicRoughness":{
				"baseColorFactor":[
					0.800000011920929,
					0.800000011920929,
					0.800000011920929,
					1
				],
				"metallicFactor":0,
				"roughnessFactor":0.5
			}
		}
	],
	"meshes":[
		{
			"name":"Plane.003",
			"primitives":[
				{
					"attributes":{
						"POSITION":0,
						"NORMAL":1,
						"TEXCOORD_0":2
					},
					"indices":3,
					"material":0
				},
				{
					"attributes":{
						"POSITION":4,
						"NORMAL":5,
						"TEXCOORD_0":6
					},
					"indices":7,
					"material":1
				}
			]
		},
		{
			"name":"Cube.001",
			"primitives":[
				{
					"attributes":{
						"POSITION":8,
						"NORMAL":9,
						"TEXCOORD_0":10
					},
					"indices":11,
					"material":2
				}
			]
		},
		{
			"name":"Torus.002",
			"primitives":[
				{
					"attributes":{
						"POSITION":12,
						"NORMAL":13,
						"TEXCOORD_0":14
					},
					"indices":15,
					"material":0
				}
			]
		},
		{
			"name":"Cube",
			"primitives":[
				{
					"attributes":{
						"POSITION":16,
						"NORMAL":17,
						"TEXCOORD_0":18
					},
					"indices":19,
					"material":3
				}
			]
		}
	],
	"textures":[
		{
			"sampler":0,
			"source":0
		},
		{
			"sampler":0,
			"source":1
		},
		{
			"sampler":0,
			"source":2
		}
	],
	"images":[
		{
			"mimeType":"image/jpeg",
			"name":"Shuttle-Feather-Bump",
			"uri":"Shuttle-Feather-Bump.jpg"
		},
		{
			"mimeType":"image/png",
			"name":"Shuttle-Feather-Opacity",
			"uri":"Shuttle-Feather-Opacity.png"
		},
		{
			"mimeType":"image/png",
			"name":"Fabric_Basic_01_Normal",
			"uri":"Fabric_Basic_01_Normal.png"
		}
	],
	"accessors":[
		{
			"bufferView":0,
			"componentType":5126,
			"count":9590,
			"max":[
				1.9345685243606567,
				3.9356529712677,
				1.943045973777771
			],
			"min":[
				-1.942586064338684,
				0.5918402671813965,
				-1.9397594928741455
			],
			"type":"VEC3"
		},
		{
			"bufferView":1,
			"componentType":5126,
			"count":9590,
			"type":"VEC3"
		},
		{
			"bufferView":2,
			"componentType":5126,
			"count":9590,
			"type":"VEC2"
		},
		{
			"bufferView":3,
			"componentType":5123,
			"count":16320,
			"type":"SCALAR"
		},
		{
			"bufferView":4,
			"componentType":5126,
			"count":128,
			"max":[
				2.212846517562866,
				4.373981952667236,
				2.229224443435669
			],
			"min":[
				-2.226475954055786,
				1.1488978862762451,
				-2.221014976501465
			],
			"type":"VEC3"
		},
		{
			"bufferView":5,
			"componentType":5126,
			"count":128,
			"type":"VEC3"
		},
		{
			"bufferView":6,
			"componentType":5126,
			"count":128,
			"type":"VEC2"
		},
		{
			"bufferView":7,
			"componentType":5123,
			"count":192,
			"type":"SCALAR"
		},
		{
			"bufferView":8,
			"componentType":5126,
			"count":2584,
			"max":[
				0.7726580500602722,
				0.7910730838775635,
				0.7726580500602722
			],
			"min":[
				-0.7726580500602722,
				0.4000000059604645,
				-0.7726580500602722
			],
			"type":"VEC3"
		},
		{
			"bufferView":9,
			"componentType":5126,
			"count":2584,
			"type":"VEC3"
		},
		{
			"bufferView":10,
			"componentType":5126,
			"count":2584,
			"type":"VEC2"
		},
		{
			"bufferView":11,
			"componentType":5123,
			"count":13824,
			"type":"SCALAR"
		},
		{
			"bufferView":12,
			"componentType":5126,
			"count":18914,
			"max":[
				1.0473294258117676,
				0.4282577633857727,
				1.0473294258117676
			],
			"min":[
				-1.047329306602478,
				-0.02052685245871544,
				-1.047329306602478
			],
			"type":"VEC3"
		},
		{
			"bufferView":13,
			"componentType":5126,
			"count":18914,
			"type":"VEC3"
		},
		{
			"bufferView":14,
			"componentType":5126,
			"count":18914,
			"type":"VEC2"
		},
		{
			"bufferView":15,
			"componentType":5123,
			"count":110592,
			"type":"SCALAR"
		},
		{
			"bufferView":16,
			"componentType":5126,
			"count":593,
			"max":[
				0.8111750483512878,
				0.5662819743156433,
				0.8111750483512878
			],
			"min":[
				-0.8111750483512878,
				-0.683826744556427,
				-0.8111750483512878
			],
			"type":"VEC3"
		},
		{
			"bufferView":17,
			"componentType":5126,
			"count":593,
			"type":"VEC3"
		},
		{
			"bufferView":18,
			"componentType":5126,
			"count":593,
			"type":"VEC2"
		},
		{
			"bufferView":19,
			"componentType":5123,
			"count":3456,
			"type":"SCALAR"
		}
	],
	"bufferViews":[
		{
			"buffer":0,
			"byteLength":115080,
			"byteOffset":0,
			"target":34962
		},
		{
			"buffer":0,
			"byteLength":115080,
			"byteOffset":115080,
			"target":34962
		},
		{
			"buffer":0,
			"byteLength":76720,
			"byteOffset":230160,
			"target":34962
		},
		{
			"buffer":0,
			"byteLength":32640,
			"byteOffset":306880,
			"target":34963
		},
		{
			"buffer":0,
			"byteLength":1536,
			"byteOffset":339520,
			"target":34962
		},
		{
			"buffer":0,
			"byteLength":1536,
			"byteOffset":341056,
			"target":34962
		},
		{
			"buffer":0,
			"byteLength":1024,
			"byteOffset":342592,
			"target":34962
		},
		{
			"buffer":0,
			"byteLength":384,
			"byteOffset":343616,
			"target":34963
		},
		{
			"buffer":0,
			"byteLength":31008,
			"byteOffset":344000,
			"target":34962
		},
		{
			"buffer":0,
			"byteLength":31008,
			"byteOffset":375008,
			"target":34962
		},
		{
			"buffer":0,
			"byteLength":20672,
			"byteOffset":406016,
			"target":34962
		},
		{
			"buffer":0,
			"byteLength":27648,
			"byteOffset":426688,
			"target":34963
		},
		{
			"buffer":0,
			"byteLength":226968,
			"byteOffset":454336,
			"target":34962
		},
		{
			"buffer":0,
			"byteLength":226968,
			"byteOffset":681304,
			"target":34962
		},
		{
			"buffer":0,
			"byteLength":151312,
			"byteOffset":908272,
			"target":34962
		},
		{
			"buffer":0,
			"byteLength":221184,
			"byteOffset":1059584,
			"target":34963
		},
		{
			"buffer":0,
			"byteLength":7116,
			"byteOffset":1280768,
			"target":34962
		},
		{
			"buffer":0,
			"byteLength":7116,
			"byteOffset":1287884,
			"target":34962
		},
		{
			"buffer":0,
			"byteLength":4744,
			"byteOffset":1295000,
			"target":34962
		},
		{
			"buffer":0,
			"byteLength":6912,
			"byteOffset":1299744,
			"target":34963
		}
	],
	"samplers":[
		{
			"magFilter":9729,
			"minFilter":9987
		}
	],
	"buffers":[
		{
			"byteLength":1306656,
			"uri":"Shuttlecock.bin"
		}
	]
}
