{
	"asset":{
		"generator":"Khronos glTF Blender I/O v4.0.44",
		"version":"2.0"
	},
	"scene":0,
	"scenes":[
		{
			"name":"Scene",
			"nodes":[
				0,
				1
			]
		}
	],
	"nodes":[
		{
			"mesh":0,
			"name":"Cube",
			"translation":[
				0.8695507645606995,
				0.3379353880882263,
				0.3384581208229065
			]
		},
		{
			"mesh":1,
			"name":"trophy",
			"rotation":[
				-0.7071068286895752,
				0,
				0,
				0.7071068286895752
			],
			"scale":[
				-0.0032522138208150864,
				-0.0032522138208150864,
				-0.0032522138208150864
			],
			"translation":[
				-0.8141689300537109,
				-1.2796385288238525,
				-1.8347716331481934
			]
		}
	],
	"materials":[
		{
			"doubleSided":true,
			"name":"Material",
			"pbrMetallicRoughness":{
				"baseColorTexture":{
					"index":0
				},
				"metallicRoughnessTexture":{
					"index":1
				}
			}
		}
	],
	"meshes":[
		{
			"name":"Cube",
			"primitives":[
				{
					"attributes":{
						"POSITION":0,
						"NORMAL":1,
						"TEXCOORD_0":2
					},
					"indices":3,
					"material":0
				}
			]
		},
		{
			"name":"trophy",
			"primitives":[
				{
					"attributes":{
						"POSITION":4,
						"NORMAL":5,
						"TEXCOORD_0":6
					},
					"indices":7,
					"material":0
				}
			]
		}
	],
	"textures":[
		{
			"sampler":0,
			"source":0
		},
		{
			"sampler":0,
			"source":1
		}
	],
	"images":[
		{
			"mimeType":"image/jpeg",
			"name":"GoldBaseMaterial",
			"uri":"GoldBaseMaterial.jpg"
		},
		{
			"mimeType":"image/jpeg",
			"name":"MedalMetal-MetalRoughness",
			"uri":"MedalMetal-MetalRoughness.jpg"
		}
	],
	"accessors":[
		{
			"bufferView":0,
			"componentType":5126,
			"count":24,
			"max":[
				1,
				1,
				1
			],
			"min":[
				-1,
				-1,
				-1
			],
			"type":"VEC3"
		},
		{
			"bufferView":1,
			"componentType":5126,
			"count":24,
			"type":"VEC3"
		},
		{
			"bufferView":2,
			"componentType":5126,
			"count":24,
			"type":"VEC2"
		},
		{
			"bufferView":3,
			"componentType":5123,
			"count":36,
			"type":"SCALAR"
		},
		{
			"bufferView":4,
			"componentType":5126,
			"count":1452906,
			"max":[
				393.68365478515625,
				276.5762023925781,
				-3.597656011581421
			],
			"min":[
				-1240.3369140625,
				-276.5762023925781,
				-1074.78955078125
			],
			"type":"VEC3"
		},
		{
			"bufferView":5,
			"componentType":5126,
			"count":1452906,
			"type":"VEC3"
		},
		{
			"bufferView":6,
			"componentType":5126,
			"count":1452906,
			"type":"VEC2"
		},
		{
			"bufferView":7,
			"componentType":5125,
			"count":2181120,
			"type":"SCALAR"
		}
	],
	"bufferViews":[
		{
			"buffer":0,
			"byteLength":288,
			"byteOffset":0,
			"target":34962
		},
		{
			"buffer":0,
			"byteLength":288,
			"byteOffset":288,
			"target":34962
		},
		{
			"buffer":0,
			"byteLength":192,
			"byteOffset":576,
			"target":34962
		},
		{
			"buffer":0,
			"byteLength":72,
			"byteOffset":768,
			"target":34963
		},
		{
			"buffer":0,
			"byteLength":17434872,
			"byteOffset":840,
			"target":34962
		},
		{
			"buffer":0,
			"byteLength":17434872,
			"byteOffset":17435712,
			"target":34962
		},
		{
			"buffer":0,
			"byteLength":11623248,
			"byteOffset":34870584,
			"target":34962
		},
		{
			"buffer":0,
			"byteLength":8724480,
			"byteOffset":46493832,
			"target":34963
		}
	],
	"samplers":[
		{
			"magFilter":9729,
			"minFilter":9987
		}
	],
	"buffers":[
		{
			"byteLength":55218312,
			"uri":"Gold.bin"
		}
	]
}
