{
	"asset":{
		"generator":"Khronos glTF Blender I/O v4.0.44",
		"version":"2.0"
	},
	"extensionsUsed":[
		"KHR_materials_specular"
	],
	"scene":0,
	"scenes":[
		{
			"name":"Scene",
			"nodes":[
				0
			]
		}
	],
	"nodes":[
		{
			"mesh":0,
			"name":"Monsterra_Deliciosa_v01"
		}
	],
	"materials":[
		{
			"doubleSided":true,
			"extensions":{
				"KHR_materials_specular":{
					"specularFactor":0
				}
			},
			"name":"Material__0",
			"pbrMetallicRoughness":{
				"baseColorFactor":[
					0.04705899953842163,
					0.1333329975605011,
					0.031373001635074615,
					1
				],
				"metallicFactor":0,
				"roughnessFactor":0.8945907354354858
			}
		},
		{
			"doubleSided":true,
			"extensions":{
				"KHR_materials_specular":{
					"specularFactor":0.5309090614318848
				}
			},
			"name":"Material__1",
			"normalTexture":{
				"index":0
			},
			"pbrMetallicRoughness":{
				"baseColorTexture":{
					"index":1
				},
				"metallicFactor":0,
				"roughnessFactor":0.2545907497406006
			}
		},
		{
			"doubleSided":true,
			"extensions":{
				"KHR_materials_specular":{
					"specularFactor":0.29818183183670044
				}
			},
			"name":"Material__2",
			"normalTexture":{
				"index":2
			},
			"pbrMetallicRoughness":{
				"baseColorTexture":{
					"index":3
				},
				"metallicFactor":0,
				"roughnessFactor":0.15277254581451416
			}
		}
	],
	"meshes":[
		{
			"name":"Monsterra_Deliciosa_v01",
			"primitives":[
				{
					"attributes":{
						"POSITION":0,
						"NORMAL":1,
						"TEXCOORD_0":2
					},
					"indices":3,
					"material":0
				},
				{
					"attributes":{
						"POSITION":4,
						"NORMAL":5,
						"TEXCOORD_0":6
					},
					"indices":7,
					"material":1
				},
				{
					"attributes":{
						"POSITION":8,
						"NORMAL":9,
						"TEXCOORD_0":10
					},
					"indices":11,
					"material":2
				}
			]
		}
	],
	"textures":[
		{
			"sampler":0,
			"source":0
		},
		{
			"sampler":0,
			"source":1
		},
		{
			"sampler":0,
			"source":0
		},
		{
			"sampler":0,
			"source":2
		}
	],
	"images":[
		{
			"mimeType":"image/jpeg",
			"name":"monsterra_deliciosa_leaf_1_normals",
			"uri":"monsterra_deliciosa_leaf_1_normals.jpg"
		},
		{
			"mimeType":"image/png",
			"name":"monsterra_deliciosa_leaf_1_color_c-monsterra_deliciosa_leaf_1_mask_2",
			"uri":"monsterra_deliciosa_leaf_1_color_c-monsterra_deliciosa_leaf_1_mask_2.png"
		},
		{
			"mimeType":"image/png",
			"name":"monsterra_deliciosa_leaf_1_color_b-monsterra_deliciosa_leaf_1_mask_1",
			"uri":"monsterra_deliciosa_leaf_1_color_b-monsterra_deliciosa_leaf_1_mask_1.png"
		}
	],
	"accessors":[
		{
			"bufferView":0,
			"componentType":5126,
			"count":17712,
			"max":[
				5.04372501373291,
				20.302780151367188,
				4.922656059265137
			],
			"min":[
				-4.723949909210205,
				-0.0001340000017080456,
				-4.817377090454102
			],
			"type":"VEC3"
		},
		{
			"bufferView":1,
			"componentType":5126,
			"count":17712,
			"type":"VEC3"
		},
		{
			"bufferView":2,
			"componentType":5126,
			"count":17712,
			"type":"VEC2"
		},
		{
			"bufferView":3,
			"componentType":5123,
			"count":87774,
			"type":"SCALAR"
		},
		{
			"bufferView":4,
			"componentType":5126,
			"count":10800,
			"max":[
				7.517950057983398,
				21.1669979095459,
				8.572951316833496
			],
			"min":[
				-6.947325229644775,
				1.4723809957504272,
				-7.177019119262695
			],
			"type":"VEC3"
		},
		{
			"bufferView":5,
			"componentType":5126,
			"count":10800,
			"type":"VEC3"
		},
		{
			"bufferView":6,
			"componentType":5126,
			"count":10800,
			"type":"VEC2"
		},
		{
			"bufferView":7,
			"componentType":5123,
			"count":57690,
			"type":"SCALAR"
		},
		{
			"bufferView":8,
			"componentType":5126,
			"count":24432,
			"max":[
				8.008814811706543,
				21.117523193359375,
				7.8215532302856445
			],
			"min":[
				-8.169290542602539,
				0.5602830052375793,
				-8.178191184997559
			],
			"type":"VEC3"
		},
		{
			"bufferView":9,
			"componentType":5126,
			"count":24432,
			"type":"VEC3"
		},
		{
			"bufferView":10,
			"componentType":5126,
			"count":24432,
			"type":"VEC2"
		},
		{
			"bufferView":11,
			"componentType":5123,
			"count":130950,
			"type":"SCALAR"
		}
	],
	"bufferViews":[
		{
			"buffer":0,
			"byteLength":212544,
			"byteOffset":0,
			"target":34962
		},
		{
			"buffer":0,
			"byteLength":212544,
			"byteOffset":212544,
			"target":34962
		},
		{
			"buffer":0,
			"byteLength":141696,
			"byteOffset":425088,
			"target":34962
		},
		{
			"buffer":0,
			"byteLength":175548,
			"byteOffset":566784,
			"target":34963
		},
		{
			"buffer":0,
			"byteLength":129600,
			"byteOffset":742332,
			"target":34962
		},
		{
			"buffer":0,
			"byteLength":129600,
			"byteOffset":871932,
			"target":34962
		},
		{
			"buffer":0,
			"byteLength":86400,
			"byteOffset":1001532,
			"target":34962
		},
		{
			"buffer":0,
			"byteLength":115380,
			"byteOffset":1087932,
			"target":34963
		},
		{
			"buffer":0,
			"byteLength":293184,
			"byteOffset":1203312,
			"target":34962
		},
		{
			"buffer":0,
			"byteLength":293184,
			"byteOffset":1496496,
			"target":34962
		},
		{
			"buffer":0,
			"byteLength":195456,
			"byteOffset":1789680,
			"target":34962
		},
		{
			"buffer":0,
			"byteLength":261900,
			"byteOffset":1985136,
			"target":34963
		}
	],
	"samplers":[
		{
			"magFilter":9729,
			"minFilter":9987
		}
	],
	"buffers":[
		{
			"byteLength":2247036,
			"uri":"monsterra.bin"
		}
	]
}
